<?xml version="1.0" encoding="UTF-8" standalone="no"?>
<!-- Created with Inkscape (http://www.inkscape.org/) -->

<svg
   width="95.049637mm"
   height="9.9790907mm"
   viewBox="0 0 95.049637 9.9790907"
   version="1.1"
   id="svg1"
   xmlns="http://www.w3.org/2000/svg"
   xmlns:svg="http://www.w3.org/2000/svg">
  <defs
     id="defs1" />
  <g
     id="layer1"
     transform="translate(-53.990701,-143.76435)">
    <path
       style="font-size:9.87778px;font-family:'Fira Code';-inkscape-font-specification:'Fira Code';fill:#36bcf7;stroke-width:0.264583"
       d="m 54.861973,145.33973 v 2.44158 h 2.735385 v 0.70918 h -2.735385 v 3.10517 h -0.871271 v -6.97523 h 4.108144 l -0.106376,0.7193 z m 6.843533,-1.57538 q 0.28367,0 0.450832,0.17223 0.172228,0.17223 0.172228,0.42044 0,0.25834 -0.172228,0.43563 -0.167162,0.17223 -0.450832,0.17223 -0.268473,0 -0.440701,-0.17223 -0.172228,-0.17729 -0.172228,-0.43563 0,-0.24821 0.172228,-0.42044 0.172228,-0.17223 0.440701,-0.17223 z m 0.678781,2.49731 v 4.66028 h 1.504462 v 0.67372 h -4.001768 v -0.67372 h 1.646297 v -3.98657 h -1.595641 v -0.67371 z m 5.13645,-0.11145 q 0.481225,0 0.845943,0.1773 0.369783,0.17729 0.643322,0.51668 l 0.07092,-0.58253 h 0.724371 v 7.48178 l -0.851009,-0.10637 v -2.71513 q -0.2938,0.41031 -0.678781,0.6028 -0.38498,0.18742 -0.820615,0.18742 -0.719305,0 -1.149875,-0.34445 -0.43057,-0.34446 -0.62306,-0.96752 -0.19249,-0.62812 -0.19249,-1.46393 0,-0.80036 0.233014,-1.42848 0.233015,-0.63319 0.683847,-0.99285 0.455897,-0.36472 1.114416,-0.36472 z m 0.212752,0.68385 q -1.332234,0 -1.332234,2.1022 0,2.06673 1.230923,2.06673 0.440701,0 0.769961,-0.24314 0.334324,-0.24822 0.552142,-0.57748 v -2.66446 q -0.207686,-0.3242 -0.526815,-0.50149 -0.319128,-0.18236 -0.693977,-0.18236 z m 4.158803,4.7616 v -0.65346 h 0.830746 v -4.02709 h -0.830746 v -0.65345 h 1.479134 l 0.157031,1.26131 q 0.308998,-0.65852 0.749699,-1.01817 0.440701,-0.35965 1.165071,-0.35965 0.222883,0 0.395111,0.0355 0.177294,0.0304 0.359653,0.0811 l -0.121573,1.80332 h -0.699043 v -1.13467 q -0.02026,0 -0.04559,0 -1.225857,0 -1.757738,1.75267 v 2.25922 h 1.084023 v 0.65346 z m 8.049128,-7.83131 q 0.28367,0 0.450832,0.17223 0.172228,0.17223 0.172228,0.42044 0,0.25834 -0.172228,0.43563 -0.167162,0.17223 -0.450832,0.17223 -0.268473,0 -0.440701,-0.17223 -0.172228,-0.17729 -0.172228,-0.43563 0,-0.24821 0.172228,-0.42044 0.172228,-0.17223 0.440701,-0.17223 z m 0.678781,2.49731 v 4.66028 h 1.504462 v 0.67372 h -4.001767 v -0.67372 h 1.646296 v -3.98657 h -1.595641 v -0.67371 z m 13.87449,3.40403 q 0,0.6028 -0.298866,1.06376 -0.298866,0.46097 -0.871271,0.72437 -0.567339,0.25834 -1.377823,0.25834 -0.764895,0 -1.387955,-0.23301 -0.617995,-0.23301 -1.058695,-0.65852 l 0.521749,-0.5876 q 0.359652,0.33939 0.830747,0.54201 0.471094,0.19756 1.10935,0.19756 0.425505,0 0.795288,-0.13677 0.369784,-0.14184 0.597732,-0.42551 0.227949,-0.28873 0.227949,-0.72943 0,-0.33433 -0.131703,-0.57241 -0.131704,-0.24314 -0.466029,-0.4255 -0.334325,-0.18743 -0.932057,-0.36472 -0.688912,-0.20262 -1.195465,-0.4559 -0.501487,-0.25834 -0.780091,-0.62812 -0.273539,-0.37485 -0.273539,-0.93206 0,-0.52175 0.288735,-0.92699 0.288735,-0.40524 0.795288,-0.63319 0.511619,-0.23302 1.175203,-0.23302 0.72437,0 1.256251,0.20769 0.536946,0.20262 0.972581,0.5876 l -0.516684,0.57241 q -0.374849,-0.32926 -0.805419,-0.48123 -0.43057,-0.15196 -0.876336,-0.15196 -0.572405,0 -0.982713,0.25327 -0.410307,0.25328 -0.410307,0.77503 0,0.30393 0.162097,0.52175 0.162097,0.21275 0.547077,0.39511 0.38498,0.18236 1.048564,0.37485 0.542012,0.15703 1.002975,0.39511 0.466028,0.23301 0.749698,0.63825 0.283669,0.40018 0.283669,1.06883 z m 6.098899,-3.40403 -1.874242,5.36946 q -0.187425,0.54201 -0.47616,0.99284 -0.283669,0.45083 -0.744632,0.74463 -0.455898,0.29887 -1.160006,0.36979 l -0.131704,-0.67879 q 0.552143,-0.0912 0.871271,-0.2786 0.319128,-0.18742 0.501487,-0.48122 0.187425,-0.28874 0.329259,-0.70411 h -0.283669 l -1.864114,-5.334 h 0.911795 l 1.529789,4.68561 1.509528,-4.68561 z m 5.46065,4.16893 q 0,0.32419 0.10637,0.47109 0.10638,0.1469 0.32926,0.21275 l -0.20769,0.59773 q -0.34445,-0.0456 -0.60279,-0.21781 -0.25835,-0.1773 -0.37485,-0.53188 -0.28874,0.36978 -0.72437,0.56227 -0.43057,0.18742 -0.94726,0.18742 -0.80035,0 -1.26131,-0.45083 -0.46097,-0.45083 -0.46097,-1.19546 0,-0.82568 0.64333,-1.26638 0.64332,-0.44071 1.85904,-0.44071 h 0.78516 v -0.44576 q 0,-0.57747 -0.33939,-0.81555 -0.33432,-0.24315 -0.93206,-0.24315 -0.2634,0 -0.61799,0.0659 -0.35459,0.0608 -0.76996,0.20769 l -0.22288,-0.64332 q 0.48629,-0.18236 0.91686,-0.25834 0.43563,-0.076 0.82568,-0.076 0.99284,0 1.49433,0.46603 0.50149,0.46603 0.50149,1.25625 z m -2.20351,0.63319 q 0.39511,0 0.7497,-0.19756 0.35965,-0.20262 0.59773,-0.55721 v -1.37275 h -0.76996 q -0.8814,0 -1.24612,0.30393 -0.35965,0.30393 -0.35965,0.81555 0,1.00804 1.0283,1.00804 z m 5.31374,-7.03096 v 2.95827 q 0.31406,-0.41537 0.76996,-0.62812 0.46097,-0.21276 0.93206,-0.21276 0.78009,0 1.13974,0.41538 0.35966,0.41537 0.35966,1.15494 v 3.87513 h -0.85101 v -3.85487 q 0,-0.48122 -0.22289,-0.69904 -0.22288,-0.22289 -0.69904,-0.22289 -0.30393,0 -0.57747,0.13677 -0.27354,0.13677 -0.49136,0.33939 -0.21781,0.20263 -0.35965,0.41538 v 3.88526 h -0.85101 V 144.124 Z m 15.73354,2.5429 q 0,0.78516 -0.49135,1.27145 -0.49136,0.48122 -1.21066,0.65345 l 2.06673,3.09504 h -1.05363 l -1.90464,-2.99373 h -0.94218 v 2.99373 h -0.88141 v -6.97523 h 1.7932 q 1.29171,0 1.95529,0.49642 0.66865,0.49135 0.66865,1.45887 z m -0.94218,0 q 0,-0.66865 -0.39005,-0.96245 -0.38498,-0.2938 -1.1904,-0.2938 h -1.0131 v 2.59355 h 1.0131 q 0.7497,0 1.16507,-0.30393 0.41538,-0.309 0.41538,-1.03337 z m 3.2622,2.65434 q 0.0355,0.92699 0.48629,1.35249 0.4559,0.42044 1.07389,0.42044 0.41031,0 0.73957,-0.12157 0.32926,-0.12157 0.68385,-0.35965 l 0.40017,0.56227 q -0.36978,0.2938 -0.85101,0.46096 -0.48122,0.16716 -0.98271,0.16716 -0.78009,0 -1.32717,-0.34952 -0.54201,-0.34952 -0.83074,-0.97258 -0.28367,-0.62812 -0.28367,-1.4538 0,-0.81049 0.28367,-1.43861 0.28873,-0.62813 0.81048,-0.98778 0.52681,-0.35966 1.23599,-0.35966 1.00804,0 1.58551,0.69905 0.58253,0.69904 0.58253,1.91477 0,0.13677 -0.0101,0.25834 -0.005,0.12157 -0.0101,0.20769 z m 1.44874,-2.3808 q -0.59267,0 -0.99284,0.42044 -0.40018,0.42044 -0.45084,1.30184 h 2.78098 q -0.0152,-0.85608 -0.37485,-1.28665 -0.35965,-0.43563 -0.96245,-0.43563 z m 7.15253,-2.84176 0.85101,0.10637 v 7.48179 h -0.74464 l -0.081,-0.70411 q -0.29887,0.4255 -0.68892,0.62306 -0.38498,0.19755 -0.82568,0.19755 -0.69397,0 -1.14481,-0.34952 -0.45083,-0.34952 -0.66865,-0.97258 -0.21781,-0.62812 -0.21781,-1.4538 0,-0.80036 0.24821,-1.42848 0.24821,-0.63319 0.71424,-0.99285 0.47109,-0.36472 1.12961,-0.36472 0.88647,0 1.42848,0.62813 z m -1.2056,2.82656 q -0.66865,0 -1.0283,0.52175 -0.35965,0.52175 -0.35965,1.58045 0,2.08699 1.28158,2.08699 0.45083,0 0.77502,-0.25327 0.3242,-0.25835 0.53695,-0.58761 v -2.66446 q -0.21782,-0.3242 -0.52682,-0.50149 -0.30899,-0.18236 -0.67878,-0.18236 z m 4.94397,-2.80124 v 2.95827 q 0.31406,-0.41537 0.76996,-0.62812 0.46096,-0.21276 0.93206,-0.21276 0.78009,0 1.13974,0.41538 0.35965,0.41537 0.35965,1.15494 v 3.87513 h -0.85101 v -3.85487 q 0,-0.48122 -0.22288,-0.69904 -0.22288,-0.22289 -0.69904,-0.22289 -0.30393,0 -0.57747,0.13677 -0.27354,0.13677 -0.49136,0.33939 -0.21782,0.20263 -0.35965,0.41538 v 3.88526 h -0.85101 V 144.124 Z m 9.04703,6.39777 q 0,0.32419 0.10638,0.47109 0.10638,0.1469 0.32926,0.21275 l -0.20769,0.59773 q -0.34445,-0.0456 -0.6028,-0.21781 -0.25834,-0.1773 -0.37484,-0.53188 -0.28874,0.36978 -0.72438,0.56227 -0.43057,0.18742 -0.94725,0.18742 -0.80035,0 -1.26132,-0.45083 -0.46096,-0.45083 -0.46096,-1.19546 0,-0.82568 0.64332,-1.26638 0.64333,-0.44071 1.85905,-0.44071 h 0.78516 v -0.44576 q 0,-0.57747 -0.33939,-0.81555 -0.33433,-0.24315 -0.93206,-0.24315 -0.26341,0 -0.61799,0.0659 -0.35459,0.0608 -0.76996,0.20769 l -0.22289,-0.64332 q 0.48629,-0.18236 0.91686,-0.25834 0.43564,-0.076 0.82569,-0.076 0.99284,0 1.49433,0.46603 0.50148,0.46603 0.50148,1.25625 z m -2.2035,0.63319 q 0.39511,0 0.7497,-0.19756 0.35965,-0.20262 0.59773,-0.55721 v -1.37275 h -0.76996 q -0.8814,0 -1.24612,0.30393 -0.35965,0.30393 -0.35965,0.81555 0,1.00804 1.0283,1.00804 z"
       id="text1"
       aria-label="Fiqri Syah Redha" />
  </g>
</svg>